<svg width="32" height="36" viewBox="0 0 32 36" fill="none" xmlns="http://www.w3.org/2000/svg">
<path d="M0 13.3137C0 7.06532 5.06532 2 11.3137 2H16V4C16 4 2 4 2 18C2 32 16 32 16 32V34L3.31371 21.3137C1.19197 19.192 0 16.3143 0 13.3137Z" fill="black"/>
<path d="M32 22.6863C32 28.9347 26.9347 34 20.6863 34L16 34V32C16 32 30 32 30 18C30 4 16 4 16 4V2L28.6863 14.6863C30.808 16.808 32 19.6857 32 22.6863Z" fill="black"/>
<path d="M13 19C13 20.1046 13.8954 21 15 21H19V17C19 15.8954 18.1046 15 17 15H13V19Z" fill="black"/>
</svg>
