<svg width="32" height="36" viewBox="0 0 32 36" fill="none" xmlns="http://www.w3.org/2000/svg">
<path d="M4 33.5C4 33.2239 4.22386 33 4.5 33H27.5C27.7761 33 28 33.2239 28 33.5C28 33.7761 27.7761 34 27.5 34H4.5C4.22386 34 4 33.7761 4 33.5Z" fill="black"/>
<path d="M24 4C24.4965 5.96733 26.0327 7.50347 28 8C26.0327 8.49653 24.4965 10.0327 24 12C23.5035 10.0327 21.9673 8.49653 20 8C21.9673 7.50347 23.5035 5.96733 24 4Z" fill="black"/>
<path d="M14 11C14.9931 14.9347 18.0653 18.0069 22 19C18.0653 19.9931 14.9931 23.0653 14 27C13.0069 23.0653 9.93466 19.9931 6 19C9.93466 18.0069 13.0069 14.9347 14 11Z" fill="black"/>
</svg>
